%TF.GenerationSoftware,KiCad,Pcbnew,(6.0.11-0)*%
%TF.CreationDate,2023-01-30T18:49:11-05:00*%
%TF.ProjectId,ESP32-Breakout,45535033-322d-4427-9265-616b6f75742e,1.0.0*%
%TF.SameCoordinates,Original*%
%TF.FileFunction,Copper,L1,Top*%
%TF.FilePolarity,Positive*%
%FSLAX46Y46*%
G04 Gerber Fmt 4.6, Leading zero omitted, Abs format (unit mm)*
G04 Created by KiCad (PCBNEW (6.0.11-0)) date 2023-01-30 18:49:11*
%MOMM*%
%LPD*%
G01*
G04 APERTURE LIST*
%TA.AperFunction,ComponentPad*%
%ADD10R,1.700000X1.700000*%
%TD*%
%TA.AperFunction,ComponentPad*%
%ADD11O,1.700000X1.700000*%
%TD*%
%TA.AperFunction,ComponentPad*%
%ADD12R,1.560000X1.560000*%
%TD*%
%TA.AperFunction,ComponentPad*%
%ADD13C,1.560000*%
%TD*%
%TA.AperFunction,Conductor*%
%ADD14C,0.500000*%
%TD*%
G04 APERTURE END LIST*
D10*
%TO.P,J101,1,Pin_1*%
%TO.N,+3V3*%
X139700000Y-73660000D03*
D11*
%TO.P,J101,2,Pin_2*%
%TO.N,Net-(J101-Pad2)*%
X139700000Y-76200000D03*
%TO.P,J101,3,Pin_3*%
%TO.N,Net-(J101-Pad3)*%
X139700000Y-78740000D03*
%TO.P,J101,4,Pin_4*%
%TO.N,Net-(J101-Pad4)*%
X139700000Y-81280000D03*
%TO.P,J101,5,Pin_5*%
%TO.N,Net-(J101-Pad5)*%
X139700000Y-83820000D03*
%TO.P,J101,6,Pin_6*%
%TO.N,Net-(J101-Pad6)*%
X139700000Y-86360000D03*
%TO.P,J101,7,Pin_7*%
%TO.N,Net-(J101-Pad7)*%
X139700000Y-88900000D03*
%TO.P,J101,8,Pin_8*%
%TO.N,Net-(J101-Pad8)*%
X139700000Y-91440000D03*
%TO.P,J101,9,Pin_9*%
%TO.N,Net-(J101-Pad9)*%
X139700000Y-93980000D03*
%TO.P,J101,10,Pin_10*%
%TO.N,Net-(J101-Pad10)*%
X139700000Y-96520000D03*
%TO.P,J101,11,Pin_11*%
%TO.N,Net-(J101-Pad11)*%
X139700000Y-99060000D03*
%TO.P,J101,12,Pin_12*%
%TO.N,Net-(J101-Pad12)*%
X139700000Y-101600000D03*
%TO.P,J101,13,Pin_13*%
%TO.N,Net-(J101-Pad13)*%
X139700000Y-104140000D03*
%TO.P,J101,14,Pin_14*%
%TO.N,GND*%
X139700000Y-106680000D03*
%TO.P,J101,15,Pin_15*%
%TO.N,Net-(J101-Pad15)*%
X139700000Y-109220000D03*
%TO.P,J101,16,Pin_16*%
%TO.N,Net-(J101-Pad16)*%
X139700000Y-111760000D03*
%TO.P,J101,17,Pin_17*%
%TO.N,Net-(J101-Pad17)*%
X139700000Y-114300000D03*
%TO.P,J101,18,Pin_18*%
%TO.N,Net-(J101-Pad18)*%
X139700000Y-116840000D03*
%TO.P,J101,19,Pin_19*%
%TO.N,+5V*%
X139700000Y-119380000D03*
%TD*%
D10*
%TO.P,J102,1,Pin_1*%
%TO.N,GND*%
X180340000Y-73670000D03*
D11*
%TO.P,J102,2,Pin_2*%
%TO.N,Net-(J102-Pad2)*%
X180340000Y-76210000D03*
%TO.P,J102,3,Pin_3*%
%TO.N,Net-(J102-Pad3)*%
X180340000Y-78750000D03*
%TO.P,J102,4,Pin_4*%
%TO.N,Net-(J102-Pad4)*%
X180340000Y-81290000D03*
%TO.P,J102,5,Pin_5*%
%TO.N,Net-(J102-Pad5)*%
X180340000Y-83830000D03*
%TO.P,J102,6,Pin_6*%
%TO.N,Net-(J102-Pad6)*%
X180340000Y-86370000D03*
%TO.P,J102,7,Pin_7*%
%TO.N,GND*%
X180340000Y-88910000D03*
%TO.P,J102,8,Pin_8*%
%TO.N,Net-(J102-Pad8)*%
X180340000Y-91450000D03*
%TO.P,J102,9,Pin_9*%
%TO.N,Net-(J102-Pad9)*%
X180340000Y-93990000D03*
%TO.P,J102,10,Pin_10*%
%TO.N,Net-(J102-Pad10)*%
X180340000Y-96530000D03*
%TO.P,J102,11,Pin_11*%
%TO.N,Net-(J102-Pad11)*%
X180340000Y-99070000D03*
%TO.P,J102,12,Pin_12*%
%TO.N,Net-(J102-Pad12)*%
X180340000Y-101610000D03*
%TO.P,J102,13,Pin_13*%
%TO.N,Net-(J102-Pad13)*%
X180340000Y-104150000D03*
%TO.P,J102,14,Pin_14*%
%TO.N,Net-(J102-Pad14)*%
X180340000Y-106690000D03*
%TO.P,J102,15,Pin_15*%
%TO.N,Net-(J102-Pad15)*%
X180340000Y-109230000D03*
%TO.P,J102,16,Pin_16*%
%TO.N,Net-(J102-Pad16)*%
X180340000Y-111770000D03*
%TO.P,J102,17,Pin_17*%
%TO.N,Net-(J102-Pad17)*%
X180340000Y-114310000D03*
%TO.P,J102,18,Pin_18*%
%TO.N,Net-(J102-Pad18)*%
X180340000Y-116850000D03*
%TO.P,J102,19,Pin_19*%
%TO.N,Net-(J102-Pad19)*%
X180340000Y-119390000D03*
%TD*%
D12*
%TO.P,U101,1,3V3*%
%TO.N,+3V3*%
X147320000Y-73660000D03*
D13*
%TO.P,U101,2,EN*%
%TO.N,Net-(J101-Pad2)*%
X147320000Y-76200000D03*
%TO.P,U101,3,SENSOR_VP*%
%TO.N,Net-(J101-Pad3)*%
X147320000Y-78740000D03*
%TO.P,U101,4,SENSOR_VN*%
%TO.N,Net-(J101-Pad4)*%
X147320000Y-81280000D03*
%TO.P,U101,5,IO34*%
%TO.N,Net-(J101-Pad5)*%
X147320000Y-83820000D03*
%TO.P,U101,6,IO35*%
%TO.N,Net-(J101-Pad6)*%
X147320000Y-86360000D03*
%TO.P,U101,7,IO32*%
%TO.N,Net-(J101-Pad7)*%
X147320000Y-88900000D03*
%TO.P,U101,8,IO33*%
%TO.N,Net-(J101-Pad8)*%
X147320000Y-91440000D03*
%TO.P,U101,9,IO25*%
%TO.N,Net-(J101-Pad9)*%
X147320000Y-93980000D03*
%TO.P,U101,10,IO26*%
%TO.N,Net-(J101-Pad10)*%
X147320000Y-96520000D03*
%TO.P,U101,11,IO27*%
%TO.N,Net-(J101-Pad11)*%
X147320000Y-99060000D03*
%TO.P,U101,12,IO14*%
%TO.N,Net-(J101-Pad12)*%
X147320000Y-101600000D03*
%TO.P,U101,13,IO12*%
%TO.N,Net-(J101-Pad13)*%
X147320000Y-104140000D03*
%TO.P,U101,14,GND1*%
%TO.N,GND*%
X147320000Y-106680000D03*
%TO.P,U101,15,IO13*%
%TO.N,Net-(J101-Pad15)*%
X147320000Y-109220000D03*
%TO.P,U101,16,SD2*%
%TO.N,Net-(J101-Pad16)*%
X147320000Y-111760000D03*
%TO.P,U101,17,SD3*%
%TO.N,Net-(J101-Pad17)*%
X147320000Y-114300000D03*
%TO.P,U101,18,CMD*%
%TO.N,Net-(J101-Pad18)*%
X147320000Y-116840000D03*
%TO.P,U101,19,EXT_5V*%
%TO.N,+5V*%
X147320000Y-119380000D03*
%TO.P,U101,20,GND3*%
%TO.N,GND*%
X172720000Y-73660000D03*
%TO.P,U101,21,IO23*%
%TO.N,Net-(J102-Pad2)*%
X172720000Y-76200000D03*
%TO.P,U101,22,IO22*%
%TO.N,Net-(J102-Pad3)*%
X172720000Y-78740000D03*
%TO.P,U101,23,TXD0*%
%TO.N,Net-(J102-Pad4)*%
X172720000Y-81280000D03*
%TO.P,U101,24,RXD0*%
%TO.N,Net-(J102-Pad5)*%
X172720000Y-83820000D03*
%TO.P,U101,25,IO21*%
%TO.N,Net-(J102-Pad6)*%
X172720000Y-86360000D03*
%TO.P,U101,26,GND2*%
%TO.N,GND*%
X172720000Y-88900000D03*
%TO.P,U101,27,IO19*%
%TO.N,Net-(J102-Pad8)*%
X172720000Y-91440000D03*
%TO.P,U101,28,IO18*%
%TO.N,Net-(J102-Pad9)*%
X172720000Y-93980000D03*
%TO.P,U101,29,IO5*%
%TO.N,Net-(J102-Pad10)*%
X172720000Y-96520000D03*
%TO.P,U101,30,IO17*%
%TO.N,Net-(J102-Pad11)*%
X172720000Y-99060000D03*
%TO.P,U101,31,IO16*%
%TO.N,Net-(J102-Pad12)*%
X172720000Y-101600000D03*
%TO.P,U101,32,IO4*%
%TO.N,Net-(J102-Pad13)*%
X172720000Y-104140000D03*
%TO.P,U101,33,IO0*%
%TO.N,Net-(J102-Pad14)*%
X172720000Y-106680000D03*
%TO.P,U101,34,IO2*%
%TO.N,Net-(J102-Pad15)*%
X172720000Y-109220000D03*
%TO.P,U101,35,IO15*%
%TO.N,Net-(J102-Pad16)*%
X172720000Y-111760000D03*
%TO.P,U101,36,SD1*%
%TO.N,Net-(J102-Pad17)*%
X172720000Y-114300000D03*
%TO.P,U101,37,SD0*%
%TO.N,Net-(J102-Pad18)*%
X172720000Y-116840000D03*
%TO.P,U101,38,CLK*%
%TO.N,Net-(J102-Pad19)*%
X172720000Y-119380000D03*
%TD*%
D14*
%TO.N,+3V3*%
X139700000Y-73660000D02*
X147320000Y-73660000D01*
%TO.N,Net-(J101-Pad2)*%
X139700000Y-76200000D02*
X147320000Y-76200000D01*
%TO.N,Net-(J101-Pad3)*%
X139700000Y-78740000D02*
X147320000Y-78740000D01*
%TO.N,Net-(J101-Pad4)*%
X139700000Y-81280000D02*
X147320000Y-81280000D01*
%TO.N,Net-(J101-Pad5)*%
X147320000Y-83820000D02*
X139700000Y-83820000D01*
%TO.N,Net-(J101-Pad6)*%
X139700000Y-86360000D02*
X147320000Y-86360000D01*
%TO.N,Net-(J101-Pad7)*%
X147320000Y-88900000D02*
X139700000Y-88900000D01*
%TO.N,Net-(J101-Pad8)*%
X139700000Y-91440000D02*
X147320000Y-91440000D01*
%TO.N,Net-(J101-Pad9)*%
X147320000Y-93980000D02*
X139700000Y-93980000D01*
%TO.N,Net-(J101-Pad10)*%
X139700000Y-96520000D02*
X147320000Y-96520000D01*
%TO.N,Net-(J101-Pad11)*%
X147320000Y-99060000D02*
X139700000Y-99060000D01*
%TO.N,Net-(J101-Pad12)*%
X139700000Y-101600000D02*
X147320000Y-101600000D01*
%TO.N,Net-(J101-Pad13)*%
X147320000Y-104140000D02*
X139700000Y-104140000D01*
%TO.N,GND*%
X180330000Y-88900000D02*
X180340000Y-88910000D01*
X180330000Y-73660000D02*
X180340000Y-73670000D01*
%TO.N,Net-(J101-Pad15)*%
X147320000Y-109220000D02*
X139700000Y-109220000D01*
%TO.N,Net-(J101-Pad16)*%
X139700000Y-111760000D02*
X147320000Y-111760000D01*
%TO.N,Net-(J101-Pad17)*%
X147320000Y-114300000D02*
X139700000Y-114300000D01*
%TO.N,Net-(J101-Pad18)*%
X139700000Y-116840000D02*
X147320000Y-116840000D01*
%TO.N,+5V*%
X147320000Y-119380000D02*
X139700000Y-119380000D01*
%TO.N,Net-(J102-Pad2)*%
X180340000Y-76210000D02*
X172730000Y-76210000D01*
X172730000Y-76210000D02*
X172720000Y-76200000D01*
%TO.N,Net-(J102-Pad3)*%
X172720000Y-78740000D02*
X180330000Y-78740000D01*
X180330000Y-78740000D02*
X180340000Y-78750000D01*
%TO.N,Net-(J102-Pad4)*%
X180340000Y-81290000D02*
X172730000Y-81290000D01*
X172730000Y-81290000D02*
X172720000Y-81280000D01*
%TO.N,Net-(J102-Pad5)*%
X172720000Y-83820000D02*
X180330000Y-83820000D01*
X180330000Y-83820000D02*
X180340000Y-83830000D01*
%TO.N,Net-(J102-Pad6)*%
X172730000Y-86370000D02*
X172720000Y-86360000D01*
X180340000Y-86370000D02*
X172730000Y-86370000D01*
%TO.N,Net-(J102-Pad8)*%
X172730000Y-91450000D02*
X172720000Y-91440000D01*
X180340000Y-91450000D02*
X172730000Y-91450000D01*
%TO.N,Net-(J102-Pad9)*%
X180330000Y-93980000D02*
X180340000Y-93990000D01*
X172720000Y-93980000D02*
X180330000Y-93980000D01*
%TO.N,Net-(J102-Pad10)*%
X172730000Y-96530000D02*
X172720000Y-96520000D01*
X180340000Y-96530000D02*
X172730000Y-96530000D01*
%TO.N,Net-(J102-Pad11)*%
X172720000Y-99060000D02*
X180330000Y-99060000D01*
X180330000Y-99060000D02*
X180340000Y-99070000D01*
%TO.N,Net-(J102-Pad12)*%
X172730000Y-101610000D02*
X172720000Y-101600000D01*
X180340000Y-101610000D02*
X172730000Y-101610000D01*
%TO.N,Net-(J102-Pad13)*%
X180330000Y-104140000D02*
X180340000Y-104150000D01*
X172720000Y-104140000D02*
X180330000Y-104140000D01*
%TO.N,Net-(J102-Pad14)*%
X172730000Y-106690000D02*
X172720000Y-106680000D01*
X180340000Y-106690000D02*
X172730000Y-106690000D01*
%TO.N,Net-(J102-Pad15)*%
X180330000Y-109220000D02*
X180340000Y-109230000D01*
X172720000Y-109220000D02*
X180330000Y-109220000D01*
%TO.N,Net-(J102-Pad16)*%
X180340000Y-111770000D02*
X172730000Y-111770000D01*
X172730000Y-111770000D02*
X172720000Y-111760000D01*
%TO.N,Net-(J102-Pad17)*%
X172720000Y-114300000D02*
X180330000Y-114300000D01*
X180330000Y-114300000D02*
X180340000Y-114310000D01*
%TO.N,Net-(J102-Pad18)*%
X180340000Y-116850000D02*
X172730000Y-116850000D01*
X172730000Y-116850000D02*
X172720000Y-116840000D01*
%TO.N,Net-(J102-Pad19)*%
X172720000Y-119380000D02*
X180330000Y-119380000D01*
X180330000Y-119380000D02*
X180340000Y-119390000D01*
%TD*%
%TA.AperFunction,Conductor*%
%TO.N,GND*%
G36*
X172166907Y-72283502D02*
G01*
X172213400Y-72337158D01*
X172223504Y-72407432D01*
X172194010Y-72472012D01*
X172152036Y-72503695D01*
X172078527Y-72537972D01*
X172069032Y-72543455D01*
X172021311Y-72576870D01*
X172012936Y-72587347D01*
X172020004Y-72600794D01*
X172707188Y-73287978D01*
X172721132Y-73295592D01*
X172722965Y-73295461D01*
X172729580Y-73291210D01*
X173420717Y-72600073D01*
X173427147Y-72588298D01*
X173417851Y-72576283D01*
X173370968Y-72543455D01*
X173361473Y-72537972D01*
X173287964Y-72503695D01*
X173234679Y-72456778D01*
X173215218Y-72388501D01*
X173235760Y-72320541D01*
X173289782Y-72274475D01*
X173341214Y-72263500D01*
X179020298Y-72263500D01*
X179088419Y-72283502D01*
X179134912Y-72337158D01*
X179145016Y-72407432D01*
X179121124Y-72465065D01*
X179045214Y-72566352D01*
X179036676Y-72581946D01*
X178991522Y-72702394D01*
X178987895Y-72717649D01*
X178982369Y-72768514D01*
X178982000Y-72775328D01*
X178982000Y-73397885D01*
X178986475Y-73413124D01*
X178987865Y-73414329D01*
X178995548Y-73416000D01*
X180468000Y-73416000D01*
X180536121Y-73436002D01*
X180582614Y-73489658D01*
X180594000Y-73542000D01*
X180594000Y-73798000D01*
X180573998Y-73866121D01*
X180520342Y-73912614D01*
X180468000Y-73924000D01*
X179000116Y-73924000D01*
X178984877Y-73928475D01*
X178983672Y-73929865D01*
X178982001Y-73937548D01*
X178982001Y-74564669D01*
X178982371Y-74571490D01*
X178987895Y-74622352D01*
X178991521Y-74637604D01*
X179036676Y-74758054D01*
X179045214Y-74773649D01*
X179121715Y-74875724D01*
X179134276Y-74888285D01*
X179236351Y-74964786D01*
X179251946Y-74973324D01*
X179360827Y-75014142D01*
X179417591Y-75056784D01*
X179442291Y-75123345D01*
X179427083Y-75192694D01*
X179407691Y-75219175D01*
X179293756Y-75338401D01*
X179280629Y-75352138D01*
X179250363Y-75396507D01*
X179195455Y-75441507D01*
X179146277Y-75451500D01*
X173834454Y-75451500D01*
X173766333Y-75431498D01*
X173731243Y-75397773D01*
X173710819Y-75368604D01*
X173551396Y-75209181D01*
X173366711Y-75079864D01*
X173361733Y-75077543D01*
X173361730Y-75077541D01*
X173289627Y-75043919D01*
X173236342Y-74997002D01*
X173216881Y-74928724D01*
X173237423Y-74860764D01*
X173289628Y-74815529D01*
X173361469Y-74782030D01*
X173370968Y-74776545D01*
X173418689Y-74743130D01*
X173427064Y-74732653D01*
X173419996Y-74719206D01*
X172732812Y-74032022D01*
X172718868Y-74024408D01*
X172717035Y-74024539D01*
X172710420Y-74028790D01*
X172019283Y-74719927D01*
X172012853Y-74731702D01*
X172022149Y-74743717D01*
X172069032Y-74776545D01*
X172078531Y-74782030D01*
X172150372Y-74815529D01*
X172203657Y-74862445D01*
X172223119Y-74930722D01*
X172202578Y-74998683D01*
X172150373Y-75043919D01*
X172078270Y-75077541D01*
X172078267Y-75077543D01*
X172073289Y-75079864D01*
X171888604Y-75209181D01*
X171729181Y-75368604D01*
X171599864Y-75553289D01*
X171504581Y-75757624D01*
X171446228Y-75975400D01*
X171426578Y-76200000D01*
X171446228Y-76424600D01*
X171504581Y-76642376D01*
X171599864Y-76846711D01*
X171729181Y-77031396D01*
X171888604Y-77190819D01*
X172073289Y-77320136D01*
X172078267Y-77322457D01*
X172078270Y-77322459D01*
X172149781Y-77355805D01*
X172203066Y-77402723D01*
X172222527Y-77471000D01*
X172201985Y-77538960D01*
X172149781Y-77584195D01*
X172078270Y-77617541D01*
X172078267Y-77617543D01*
X172073289Y-77619864D01*
X171888604Y-77749181D01*
X171729181Y-77908604D01*
X171599864Y-78093289D01*
X171504581Y-78297624D01*
X171446228Y-78515400D01*
X171426578Y-78740000D01*
X171446228Y-78964600D01*
X171504581Y-79182376D01*
X171599864Y-79386711D01*
X171729181Y-79571396D01*
X171888604Y-79730819D01*
X172073289Y-79860136D01*
X172078267Y-79862457D01*
X172078270Y-79862459D01*
X172149781Y-79895805D01*
X172203066Y-79942723D01*
X172222527Y-80011000D01*
X172201985Y-80078960D01*
X172149781Y-80124195D01*
X172078270Y-80157541D01*
X172078267Y-80157543D01*
X172073289Y-80159864D01*
X171888604Y-80289181D01*
X171729181Y-80448604D01*
X171599864Y-80633289D01*
X171504581Y-80837624D01*
X171446228Y-81055400D01*
X171426578Y-81280000D01*
X171446228Y-81504600D01*
X171504581Y-81722376D01*
X171599864Y-81926711D01*
X171729181Y-82111396D01*
X171888604Y-82270819D01*
X172073289Y-82400136D01*
X172078267Y-82402457D01*
X172078270Y-82402459D01*
X172149781Y-82435805D01*
X172203066Y-82482723D01*
X172222527Y-82551000D01*
X172201985Y-82618960D01*
X172149781Y-82664195D01*
X172078270Y-82697541D01*
X172078267Y-82697543D01*
X172073289Y-82699864D01*
X171888604Y-82829181D01*
X171729181Y-82988604D01*
X171599864Y-83173289D01*
X171504581Y-83377624D01*
X171446228Y-83595400D01*
X171426578Y-83820000D01*
X171446228Y-84044600D01*
X171504581Y-84262376D01*
X171599864Y-84466711D01*
X171729181Y-84651396D01*
X171888604Y-84810819D01*
X172073289Y-84940136D01*
X172078267Y-84942457D01*
X172078270Y-84942459D01*
X172149781Y-84975805D01*
X172203066Y-85022723D01*
X172222527Y-85091000D01*
X172201985Y-85158960D01*
X172149781Y-85204195D01*
X172078270Y-85237541D01*
X172078267Y-85237543D01*
X172073289Y-85239864D01*
X171888604Y-85369181D01*
X171729181Y-85528604D01*
X171599864Y-85713289D01*
X171504581Y-85917624D01*
X171446228Y-86135400D01*
X171426578Y-86360000D01*
X171446228Y-86584600D01*
X171504581Y-86802376D01*
X171599864Y-87006711D01*
X171729181Y-87191396D01*
X171888604Y-87350819D01*
X172073289Y-87480136D01*
X172078267Y-87482457D01*
X172078270Y-87482459D01*
X172150373Y-87516081D01*
X172203658Y-87562998D01*
X172223119Y-87631276D01*
X172202577Y-87699236D01*
X172150372Y-87744471D01*
X172078531Y-87777970D01*
X172069032Y-87783455D01*
X172021311Y-87816870D01*
X172012936Y-87827347D01*
X172020004Y-87840794D01*
X172707188Y-88527978D01*
X172721132Y-88535592D01*
X172722965Y-88535461D01*
X172729580Y-88531210D01*
X173420717Y-87840073D01*
X173427147Y-87828298D01*
X173417851Y-87816283D01*
X173370968Y-87783455D01*
X173361469Y-87777970D01*
X173289628Y-87744471D01*
X173236343Y-87697555D01*
X173216881Y-87629278D01*
X173237422Y-87561317D01*
X173289627Y-87516081D01*
X173361730Y-87482459D01*
X173361733Y-87482457D01*
X173366711Y-87480136D01*
X173551396Y-87350819D01*
X173710819Y-87191396D01*
X173717238Y-87182228D01*
X173772693Y-87137901D01*
X173820450Y-87128500D01*
X179142491Y-87128500D01*
X179210612Y-87148502D01*
X179239402Y-87175595D01*
X179239987Y-87175088D01*
X179386250Y-87343938D01*
X179450801Y-87397529D01*
X179553100Y-87482459D01*
X179558126Y-87486632D01*
X179608050Y-87515805D01*
X179631955Y-87529774D01*
X179680679Y-87581412D01*
X179693750Y-87651195D01*
X179667019Y-87716967D01*
X179626562Y-87750327D01*
X179618457Y-87754546D01*
X179609738Y-87760036D01*
X179439433Y-87887905D01*
X179431726Y-87894748D01*
X179284590Y-88048717D01*
X179278104Y-88056727D01*
X179158098Y-88232649D01*
X179153000Y-88241623D01*
X179063338Y-88434783D01*
X179059775Y-88444470D01*
X179004389Y-88644183D01*
X179005912Y-88652607D01*
X179018292Y-88656000D01*
X180468000Y-88656000D01*
X180536121Y-88676002D01*
X180582614Y-88729658D01*
X180594000Y-88782000D01*
X180594000Y-89038000D01*
X180573998Y-89106121D01*
X180520342Y-89152614D01*
X180468000Y-89164000D01*
X179023225Y-89164000D01*
X179009694Y-89167973D01*
X179008257Y-89177966D01*
X179038565Y-89312446D01*
X179041645Y-89322275D01*
X179121770Y-89519603D01*
X179126413Y-89528794D01*
X179237694Y-89710388D01*
X179243777Y-89718699D01*
X179383213Y-89879667D01*
X179390580Y-89886883D01*
X179554434Y-90022916D01*
X179562881Y-90028831D01*
X179631969Y-90069203D01*
X179680693Y-90120842D01*
X179693764Y-90190625D01*
X179667033Y-90256396D01*
X179626584Y-90289752D01*
X179613607Y-90296507D01*
X179609474Y-90299610D01*
X179609471Y-90299612D01*
X179443305Y-90424373D01*
X179434965Y-90430635D01*
X179280629Y-90592138D01*
X179250363Y-90636507D01*
X179195455Y-90681507D01*
X179146277Y-90691500D01*
X173834454Y-90691500D01*
X173766333Y-90671498D01*
X173731243Y-90637773D01*
X173710819Y-90608604D01*
X173551396Y-90449181D01*
X173366711Y-90319864D01*
X173361733Y-90317543D01*
X173361730Y-90317541D01*
X173289627Y-90283919D01*
X173236342Y-90237002D01*
X173216881Y-90168724D01*
X173237423Y-90100764D01*
X173289628Y-90055529D01*
X173361469Y-90022030D01*
X173370968Y-90016545D01*
X173418689Y-89983130D01*
X173427064Y-89972653D01*
X173419996Y-89959206D01*
X172732812Y-89272022D01*
X172718868Y-89264408D01*
X172717035Y-89264539D01*
X172710420Y-89268790D01*
X172019283Y-89959927D01*
X172012853Y-89971702D01*
X172022149Y-89983717D01*
X172069032Y-90016545D01*
X172078531Y-90022030D01*
X172150372Y-90055529D01*
X172203657Y-90102445D01*
X172223119Y-90170722D01*
X172202578Y-90238683D01*
X172150373Y-90283919D01*
X172078270Y-90317541D01*
X172078267Y-90317543D01*
X172073289Y-90319864D01*
X171888604Y-90449181D01*
X171729181Y-90608604D01*
X171599864Y-90793289D01*
X171504581Y-90997624D01*
X171446228Y-91215400D01*
X171426578Y-91440000D01*
X171446228Y-91664600D01*
X171504581Y-91882376D01*
X171599864Y-92086711D01*
X171729181Y-92271396D01*
X171888604Y-92430819D01*
X172073289Y-92560136D01*
X172078267Y-92562457D01*
X172078270Y-92562459D01*
X172149781Y-92595805D01*
X172203066Y-92642723D01*
X172222527Y-92711000D01*
X172201985Y-92778960D01*
X172149781Y-92824195D01*
X172078270Y-92857541D01*
X172078267Y-92857543D01*
X172073289Y-92859864D01*
X171888604Y-92989181D01*
X171729181Y-93148604D01*
X171599864Y-93333289D01*
X171504581Y-93537624D01*
X171446228Y-93755400D01*
X171426578Y-93980000D01*
X171446228Y-94204600D01*
X171504581Y-94422376D01*
X171599864Y-94626711D01*
X171729181Y-94811396D01*
X171888604Y-94970819D01*
X172073289Y-95100136D01*
X172078267Y-95102457D01*
X172078270Y-95102459D01*
X172149781Y-95135805D01*
X172203066Y-95182723D01*
X172222527Y-95251000D01*
X172201985Y-95318960D01*
X172149781Y-95364195D01*
X172078270Y-95397541D01*
X172078267Y-95397543D01*
X172073289Y-95399864D01*
X171888604Y-95529181D01*
X171729181Y-95688604D01*
X171599864Y-95873289D01*
X171504581Y-96077624D01*
X171446228Y-96295400D01*
X171426578Y-96520000D01*
X171446228Y-96744600D01*
X171504581Y-96962376D01*
X171599864Y-97166711D01*
X171729181Y-97351396D01*
X171888604Y-97510819D01*
X172073289Y-97640136D01*
X172078267Y-97642457D01*
X172078270Y-97642459D01*
X172149781Y-97675805D01*
X172203066Y-97722723D01*
X172222527Y-97791000D01*
X172201985Y-97858960D01*
X172149781Y-97904195D01*
X172078270Y-97937541D01*
X172078267Y-97937543D01*
X172073289Y-97939864D01*
X171888604Y-98069181D01*
X171729181Y-98228604D01*
X171599864Y-98413289D01*
X171504581Y-98617624D01*
X171446228Y-98835400D01*
X171426578Y-99060000D01*
X171446228Y-99284600D01*
X171504581Y-99502376D01*
X171599864Y-99706711D01*
X171729181Y-99891396D01*
X171888604Y-100050819D01*
X172073289Y-100180136D01*
X172078267Y-100182457D01*
X172078270Y-100182459D01*
X172149781Y-100215805D01*
X172203066Y-100262723D01*
X172222527Y-100331000D01*
X172201985Y-100398960D01*
X172149781Y-100444195D01*
X172078270Y-100477541D01*
X172078267Y-100477543D01*
X172073289Y-100479864D01*
X171888604Y-100609181D01*
X171729181Y-100768604D01*
X171599864Y-100953289D01*
X171504581Y-101157624D01*
X171446228Y-101375400D01*
X171426578Y-101600000D01*
X171446228Y-101824600D01*
X171504581Y-102042376D01*
X171599864Y-102246711D01*
X171729181Y-102431396D01*
X171888604Y-102590819D01*
X172073289Y-102720136D01*
X172078267Y-102722457D01*
X172078270Y-102722459D01*
X172149781Y-102755805D01*
X172203066Y-102802723D01*
X172222527Y-102871000D01*
X172201985Y-102938960D01*
X172149781Y-102984195D01*
X172078270Y-103017541D01*
X172078267Y-103017543D01*
X172073289Y-103019864D01*
X171888604Y-103149181D01*
X171729181Y-103308604D01*
X171599864Y-103493289D01*
X171504581Y-103697624D01*
X171446228Y-103915400D01*
X171426578Y-104140000D01*
X171446228Y-104364600D01*
X171504581Y-104582376D01*
X171599864Y-104786711D01*
X171729181Y-104971396D01*
X171888604Y-105130819D01*
X172073289Y-105260136D01*
X172078267Y-105262457D01*
X172078270Y-105262459D01*
X172149781Y-105295805D01*
X172203066Y-105342723D01*
X172222527Y-105411000D01*
X172201985Y-105478960D01*
X172149781Y-105524195D01*
X172078270Y-105557541D01*
X172078267Y-105557543D01*
X172073289Y-105559864D01*
X171888604Y-105689181D01*
X171729181Y-105848604D01*
X171599864Y-106033289D01*
X171504581Y-106237624D01*
X171503159Y-106242932D01*
X171503158Y-106242934D01*
X171457603Y-106412947D01*
X171446228Y-106455400D01*
X171426578Y-106680000D01*
X171446228Y-106904600D01*
X171447652Y-106909913D01*
X171447652Y-106909915D01*
X171485730Y-107052022D01*
X171504581Y-107122376D01*
X171506903Y-107127357D01*
X171506904Y-107127358D01*
X171529900Y-107176672D01*
X171599864Y-107326711D01*
X171729181Y-107511396D01*
X171888604Y-107670819D01*
X172073289Y-107800136D01*
X172078267Y-107802457D01*
X172078270Y-107802459D01*
X172149781Y-107835805D01*
X172203066Y-107882723D01*
X172222527Y-107951000D01*
X172201985Y-108018960D01*
X172149781Y-108064195D01*
X172078270Y-108097541D01*
X172078267Y-108097543D01*
X172073289Y-108099864D01*
X171888604Y-108229181D01*
X171729181Y-108388604D01*
X171599864Y-108573289D01*
X171504581Y-108777624D01*
X171446228Y-108995400D01*
X171426578Y-109220000D01*
X171446228Y-109444600D01*
X171504581Y-109662376D01*
X171599864Y-109866711D01*
X171729181Y-110051396D01*
X171888604Y-110210819D01*
X172073289Y-110340136D01*
X172078267Y-110342457D01*
X172078270Y-110342459D01*
X172149781Y-110375805D01*
X172203066Y-110422723D01*
X172222527Y-110491000D01*
X172201985Y-110558960D01*
X172149781Y-110604195D01*
X172078270Y-110637541D01*
X172078267Y-110637543D01*
X172073289Y-110639864D01*
X171888604Y-110769181D01*
X171729181Y-110928604D01*
X171599864Y-111113289D01*
X171504581Y-111317624D01*
X171446228Y-111535400D01*
X171426578Y-111760000D01*
X171446228Y-111984600D01*
X171504581Y-112202376D01*
X171599864Y-112406711D01*
X171729181Y-112591396D01*
X171888604Y-112750819D01*
X172073289Y-112880136D01*
X172078267Y-112882457D01*
X172078270Y-112882459D01*
X172149781Y-112915805D01*
X172203066Y-112962723D01*
X172222527Y-113031000D01*
X172201985Y-113098960D01*
X172149781Y-113144195D01*
X172078270Y-113177541D01*
X172078267Y-113177543D01*
X172073289Y-113179864D01*
X171888604Y-113309181D01*
X171729181Y-113468604D01*
X171599864Y-113653289D01*
X171504581Y-113857624D01*
X171446228Y-114075400D01*
X171426578Y-114300000D01*
X171446228Y-114524600D01*
X171504581Y-114742376D01*
X171599864Y-114946711D01*
X171729181Y-115131396D01*
X171888604Y-115290819D01*
X172073289Y-115420136D01*
X172078267Y-115422457D01*
X172078270Y-115422459D01*
X172149781Y-115455805D01*
X172203066Y-115502723D01*
X172222527Y-115571000D01*
X172201985Y-115638960D01*
X172149781Y-115684195D01*
X172078270Y-115717541D01*
X172078267Y-115717543D01*
X172073289Y-115719864D01*
X171888604Y-115849181D01*
X171729181Y-116008604D01*
X171599864Y-116193289D01*
X171504581Y-116397624D01*
X171446228Y-116615400D01*
X171426578Y-116840000D01*
X171446228Y-117064600D01*
X171504581Y-117282376D01*
X171599864Y-117486711D01*
X171729181Y-117671396D01*
X171888604Y-117830819D01*
X172073289Y-117960136D01*
X172078267Y-117962457D01*
X172078270Y-117962459D01*
X172149781Y-117995805D01*
X172203066Y-118042723D01*
X172222527Y-118111000D01*
X172201985Y-118178960D01*
X172149781Y-118224195D01*
X172078270Y-118257541D01*
X172078267Y-118257543D01*
X172073289Y-118259864D01*
X171888604Y-118389181D01*
X171729181Y-118548604D01*
X171599864Y-118733289D01*
X171504581Y-118937624D01*
X171446228Y-119155400D01*
X171426578Y-119380000D01*
X171446228Y-119604600D01*
X171504581Y-119822376D01*
X171599864Y-120026711D01*
X171729181Y-120211396D01*
X171888604Y-120370819D01*
X172073289Y-120500136D01*
X172078267Y-120502457D01*
X172078270Y-120502459D01*
X172150854Y-120536305D01*
X172204139Y-120583222D01*
X172223600Y-120651499D01*
X172203058Y-120719459D01*
X172149036Y-120765525D01*
X172097604Y-120776500D01*
X147942396Y-120776500D01*
X147874275Y-120756498D01*
X147827782Y-120702842D01*
X147817678Y-120632568D01*
X147847172Y-120567988D01*
X147889146Y-120536305D01*
X147961730Y-120502459D01*
X147961733Y-120502457D01*
X147966711Y-120500136D01*
X148151396Y-120370819D01*
X148310819Y-120211396D01*
X148440136Y-120026711D01*
X148535419Y-119822376D01*
X148593772Y-119604600D01*
X148613422Y-119380000D01*
X148593772Y-119155400D01*
X148535419Y-118937624D01*
X148440136Y-118733289D01*
X148310819Y-118548604D01*
X148151396Y-118389181D01*
X147966711Y-118259864D01*
X147961733Y-118257543D01*
X147961730Y-118257541D01*
X147890219Y-118224195D01*
X147836934Y-118177277D01*
X147817473Y-118109000D01*
X147838015Y-118041040D01*
X147890219Y-117995805D01*
X147961730Y-117962459D01*
X147961733Y-117962457D01*
X147966711Y-117960136D01*
X148151396Y-117830819D01*
X148310819Y-117671396D01*
X148440136Y-117486711D01*
X148535419Y-117282376D01*
X148593772Y-117064600D01*
X148613422Y-116840000D01*
X148593772Y-116615400D01*
X148535419Y-116397624D01*
X148440136Y-116193289D01*
X148310819Y-116008604D01*
X148151396Y-115849181D01*
X147966711Y-115719864D01*
X147961733Y-115717543D01*
X147961730Y-115717541D01*
X147890219Y-115684195D01*
X147836934Y-115637277D01*
X147817473Y-115569000D01*
X147838015Y-115501040D01*
X147890219Y-115455805D01*
X147961730Y-115422459D01*
X147961733Y-115422457D01*
X147966711Y-115420136D01*
X148151396Y-115290819D01*
X148310819Y-115131396D01*
X148440136Y-114946711D01*
X148535419Y-114742376D01*
X148593772Y-114524600D01*
X148613422Y-114300000D01*
X148593772Y-114075400D01*
X148535419Y-113857624D01*
X148440136Y-113653289D01*
X148310819Y-113468604D01*
X148151396Y-113309181D01*
X147966711Y-113179864D01*
X147961733Y-113177543D01*
X147961730Y-113177541D01*
X147890219Y-113144195D01*
X147836934Y-113097277D01*
X147817473Y-113029000D01*
X147838015Y-112961040D01*
X147890219Y-112915805D01*
X147961730Y-112882459D01*
X147961733Y-112882457D01*
X147966711Y-112880136D01*
X148151396Y-112750819D01*
X148310819Y-112591396D01*
X148440136Y-112406711D01*
X148535419Y-112202376D01*
X148593772Y-111984600D01*
X148613422Y-111760000D01*
X148593772Y-111535400D01*
X148535419Y-111317624D01*
X148440136Y-111113289D01*
X148310819Y-110928604D01*
X148151396Y-110769181D01*
X147966711Y-110639864D01*
X147961733Y-110637543D01*
X147961730Y-110637541D01*
X147890219Y-110604195D01*
X147836934Y-110557277D01*
X147817473Y-110489000D01*
X147838015Y-110421040D01*
X147890219Y-110375805D01*
X147961730Y-110342459D01*
X147961733Y-110342457D01*
X147966711Y-110340136D01*
X148151396Y-110210819D01*
X148310819Y-110051396D01*
X148440136Y-109866711D01*
X148535419Y-109662376D01*
X148593772Y-109444600D01*
X148613422Y-109220000D01*
X148593772Y-108995400D01*
X148535419Y-108777624D01*
X148440136Y-108573289D01*
X148310819Y-108388604D01*
X148151396Y-108229181D01*
X147966711Y-108099864D01*
X147961733Y-108097543D01*
X147961730Y-108097541D01*
X147889627Y-108063919D01*
X147836342Y-108017002D01*
X147816881Y-107948724D01*
X147837423Y-107880764D01*
X147889628Y-107835529D01*
X147961469Y-107802030D01*
X147970968Y-107796545D01*
X148018689Y-107763130D01*
X148027064Y-107752653D01*
X148019996Y-107739206D01*
X147332812Y-107052022D01*
X147318868Y-107044408D01*
X147317035Y-107044539D01*
X147310420Y-107048790D01*
X146619283Y-107739927D01*
X146612853Y-107751702D01*
X146622149Y-107763717D01*
X146669032Y-107796545D01*
X146678531Y-107802030D01*
X146750372Y-107835529D01*
X146803657Y-107882445D01*
X146823119Y-107950722D01*
X146802578Y-108018683D01*
X146750373Y-108063919D01*
X146678270Y-108097541D01*
X146678267Y-108097543D01*
X146673289Y-108099864D01*
X146488604Y-108229181D01*
X146329181Y-108388604D01*
X146315760Y-108407772D01*
X146260305Y-108452099D01*
X146212548Y-108461500D01*
X140895939Y-108461500D01*
X140827818Y-108441498D01*
X140790147Y-108403941D01*
X140789291Y-108402617D01*
X140780014Y-108388277D01*
X140629670Y-108223051D01*
X140625619Y-108219852D01*
X140625615Y-108219848D01*
X140458414Y-108087800D01*
X140458410Y-108087798D01*
X140454359Y-108084598D01*
X140412569Y-108061529D01*
X140362598Y-108011097D01*
X140347826Y-107941654D01*
X140372942Y-107875248D01*
X140400294Y-107848641D01*
X140575328Y-107723792D01*
X140583200Y-107717139D01*
X140734052Y-107566812D01*
X140740730Y-107558965D01*
X140865003Y-107386020D01*
X140870313Y-107377183D01*
X140964670Y-107186267D01*
X140968469Y-107176672D01*
X141030377Y-106972910D01*
X141032555Y-106962837D01*
X141033986Y-106951962D01*
X141031775Y-106937778D01*
X141018617Y-106934000D01*
X139572000Y-106934000D01*
X139503879Y-106913998D01*
X139457386Y-106860342D01*
X139446000Y-106808000D01*
X139446000Y-106685475D01*
X146027559Y-106685475D01*
X146046243Y-106899036D01*
X146048145Y-106909823D01*
X146103630Y-107116894D01*
X146107378Y-107127190D01*
X146197972Y-107321473D01*
X146203455Y-107330968D01*
X146236870Y-107378689D01*
X146247347Y-107387064D01*
X146260794Y-107379996D01*
X146947978Y-106692812D01*
X146954356Y-106681132D01*
X147684408Y-106681132D01*
X147684539Y-106682965D01*
X147688790Y-106689580D01*
X148379927Y-107380717D01*
X148391702Y-107387147D01*
X148403717Y-107377851D01*
X148436545Y-107330968D01*
X148442028Y-107321473D01*
X148532622Y-107127190D01*
X148536370Y-107116894D01*
X148591855Y-106909823D01*
X148593757Y-106899036D01*
X148612441Y-106685475D01*
X148612441Y-106674525D01*
X148593757Y-106460964D01*
X148591855Y-106450177D01*
X148536370Y-106243106D01*
X148532622Y-106232810D01*
X148442028Y-106038527D01*
X148436545Y-106029032D01*
X148403130Y-105981311D01*
X148392653Y-105972936D01*
X148379206Y-105980004D01*
X147692022Y-106667188D01*
X147684408Y-106681132D01*
X146954356Y-106681132D01*
X146955592Y-106678868D01*
X146955461Y-106677035D01*
X146951210Y-106670420D01*
X146260073Y-105979283D01*
X146248298Y-105972853D01*
X146236283Y-105982149D01*
X146203455Y-106029032D01*
X146197972Y-106038527D01*
X146107378Y-106232810D01*
X146103630Y-106243106D01*
X146048145Y-106450177D01*
X146046243Y-106460964D01*
X146027559Y-106674525D01*
X146027559Y-106685475D01*
X139446000Y-106685475D01*
X139446000Y-106552000D01*
X139466002Y-106483879D01*
X139519658Y-106437386D01*
X139572000Y-106426000D01*
X141018344Y-106426000D01*
X141031875Y-106422027D01*
X141033180Y-106412947D01*
X140991214Y-106245875D01*
X140987894Y-106236124D01*
X140902972Y-106040814D01*
X140898105Y-106031739D01*
X140782426Y-105852926D01*
X140776136Y-105844757D01*
X140632806Y-105687240D01*
X140625273Y-105680215D01*
X140458139Y-105548222D01*
X140449556Y-105542520D01*
X140412602Y-105522120D01*
X140362631Y-105471687D01*
X140347859Y-105402245D01*
X140372975Y-105335839D01*
X140400327Y-105309232D01*
X140460050Y-105266632D01*
X140579860Y-105181173D01*
X140738096Y-105023489D01*
X140778771Y-104966884D01*
X140790203Y-104950974D01*
X140846198Y-104907326D01*
X140892526Y-104898500D01*
X146212548Y-104898500D01*
X146280669Y-104918502D01*
X146315759Y-104952227D01*
X146329181Y-104971396D01*
X146488604Y-105130819D01*
X146673289Y-105260136D01*
X146678267Y-105262457D01*
X146678270Y-105262459D01*
X146750373Y-105296081D01*
X146803658Y-105342998D01*
X146823119Y-105411276D01*
X146802577Y-105479236D01*
X146750372Y-105524471D01*
X146678531Y-105557970D01*
X146669032Y-105563455D01*
X146621311Y-105596870D01*
X146612936Y-105607347D01*
X146620004Y-105620794D01*
X147307188Y-106307978D01*
X147321132Y-106315592D01*
X147322965Y-106315461D01*
X147329580Y-106311210D01*
X148020717Y-105620073D01*
X148027147Y-105608298D01*
X148017851Y-105596283D01*
X147970968Y-105563455D01*
X147961469Y-105557970D01*
X147889628Y-105524471D01*
X147836343Y-105477555D01*
X147816881Y-105409278D01*
X147837422Y-105341317D01*
X147889627Y-105296081D01*
X147961730Y-105262459D01*
X147961733Y-105262457D01*
X147966711Y-105260136D01*
X148151396Y-105130819D01*
X148310819Y-104971396D01*
X148440136Y-104786711D01*
X148535419Y-104582376D01*
X148593772Y-104364600D01*
X148613422Y-104140000D01*
X148593772Y-103915400D01*
X148535419Y-103697624D01*
X148440136Y-103493289D01*
X148310819Y-103308604D01*
X148151396Y-103149181D01*
X147966711Y-103019864D01*
X147961733Y-103017543D01*
X147961730Y-103017541D01*
X147890219Y-102984195D01*
X147836934Y-102937277D01*
X147817473Y-102869000D01*
X147838015Y-102801040D01*
X147890219Y-102755805D01*
X147961730Y-102722459D01*
X147961733Y-102722457D01*
X147966711Y-102720136D01*
X148151396Y-102590819D01*
X148310819Y-102431396D01*
X148440136Y-102246711D01*
X148535419Y-102042376D01*
X148593772Y-101824600D01*
X148613422Y-101600000D01*
X148593772Y-101375400D01*
X148535419Y-101157624D01*
X148440136Y-100953289D01*
X148310819Y-100768604D01*
X148151396Y-100609181D01*
X147966711Y-100479864D01*
X147961733Y-100477543D01*
X147961730Y-100477541D01*
X147890219Y-100444195D01*
X147836934Y-100397277D01*
X147817473Y-100329000D01*
X147838015Y-100261040D01*
X147890219Y-100215805D01*
X147961730Y-100182459D01*
X147961733Y-100182457D01*
X147966711Y-100180136D01*
X148151396Y-100050819D01*
X148310819Y-99891396D01*
X148440136Y-99706711D01*
X148535419Y-99502376D01*
X148593772Y-99284600D01*
X148613422Y-99060000D01*
X148593772Y-98835400D01*
X148535419Y-98617624D01*
X148440136Y-98413289D01*
X148310819Y-98228604D01*
X148151396Y-98069181D01*
X147966711Y-97939864D01*
X147961733Y-97937543D01*
X147961730Y-97937541D01*
X147890219Y-97904195D01*
X147836934Y-97857277D01*
X147817473Y-97789000D01*
X147838015Y-97721040D01*
X147890219Y-97675805D01*
X147961730Y-97642459D01*
X147961733Y-97642457D01*
X147966711Y-97640136D01*
X148151396Y-97510819D01*
X148310819Y-97351396D01*
X148440136Y-97166711D01*
X148535419Y-96962376D01*
X148593772Y-96744600D01*
X148613422Y-96520000D01*
X148593772Y-96295400D01*
X148535419Y-96077624D01*
X148440136Y-95873289D01*
X148310819Y-95688604D01*
X148151396Y-95529181D01*
X147966711Y-95399864D01*
X147961733Y-95397543D01*
X147961730Y-95397541D01*
X147890219Y-95364195D01*
X147836934Y-95317277D01*
X147817473Y-95249000D01*
X147838015Y-95181040D01*
X147890219Y-95135805D01*
X147961730Y-95102459D01*
X147961733Y-95102457D01*
X147966711Y-95100136D01*
X148151396Y-94970819D01*
X148310819Y-94811396D01*
X148440136Y-94626711D01*
X148535419Y-94422376D01*
X148593772Y-94204600D01*
X148613422Y-93980000D01*
X148593772Y-93755400D01*
X148535419Y-93537624D01*
X148440136Y-93333289D01*
X148310819Y-93148604D01*
X148151396Y-92989181D01*
X147966711Y-92859864D01*
X147961733Y-92857543D01*
X147961730Y-92857541D01*
X147890219Y-92824195D01*
X147836934Y-92777277D01*
X147817473Y-92709000D01*
X147838015Y-92641040D01*
X147890219Y-92595805D01*
X147961730Y-92562459D01*
X147961733Y-92562457D01*
X147966711Y-92560136D01*
X148151396Y-92430819D01*
X148310819Y-92271396D01*
X148440136Y-92086711D01*
X148535419Y-91882376D01*
X148593772Y-91664600D01*
X148613422Y-91440000D01*
X148593772Y-91215400D01*
X148535419Y-90997624D01*
X148440136Y-90793289D01*
X148310819Y-90608604D01*
X148151396Y-90449181D01*
X147966711Y-90319864D01*
X147961733Y-90317543D01*
X147961730Y-90317541D01*
X147890219Y-90284195D01*
X147836934Y-90237277D01*
X147817473Y-90169000D01*
X147838015Y-90101040D01*
X147890219Y-90055805D01*
X147961730Y-90022459D01*
X147961733Y-90022457D01*
X147966711Y-90020136D01*
X148151396Y-89890819D01*
X148310819Y-89731396D01*
X148440136Y-89546711D01*
X148535419Y-89342376D01*
X148554271Y-89272022D01*
X148592348Y-89129915D01*
X148592348Y-89129913D01*
X148593772Y-89124600D01*
X148612943Y-88905475D01*
X171427559Y-88905475D01*
X171446243Y-89119036D01*
X171448145Y-89129823D01*
X171503630Y-89336894D01*
X171507378Y-89347190D01*
X171597972Y-89541473D01*
X171603455Y-89550968D01*
X171636870Y-89598689D01*
X171647347Y-89607064D01*
X171660794Y-89599996D01*
X172347978Y-88912812D01*
X172354356Y-88901132D01*
X173084408Y-88901132D01*
X173084539Y-88902965D01*
X173088790Y-88909580D01*
X173779927Y-89600717D01*
X173791702Y-89607147D01*
X173803717Y-89597851D01*
X173836545Y-89550968D01*
X173842028Y-89541473D01*
X173932622Y-89347190D01*
X173936370Y-89336894D01*
X173991855Y-89129823D01*
X173993757Y-89119036D01*
X174012441Y-88905475D01*
X174012441Y-88894525D01*
X173993757Y-88680964D01*
X173991855Y-88670177D01*
X173936370Y-88463106D01*
X173932622Y-88452810D01*
X173842028Y-88258527D01*
X173836545Y-88249032D01*
X173803130Y-88201311D01*
X173792653Y-88192936D01*
X173779206Y-88200004D01*
X173092022Y-88887188D01*
X173084408Y-88901132D01*
X172354356Y-88901132D01*
X172355592Y-88898868D01*
X172355461Y-88897035D01*
X172351210Y-88890420D01*
X171660073Y-88199283D01*
X171648298Y-88192853D01*
X171636283Y-88202149D01*
X171603455Y-88249032D01*
X171597972Y-88258527D01*
X171507378Y-88452810D01*
X171503630Y-88463106D01*
X171448145Y-88670177D01*
X171446243Y-88680964D01*
X171427559Y-88894525D01*
X171427559Y-88905475D01*
X148612943Y-88905475D01*
X148613422Y-88900000D01*
X148593772Y-88675400D01*
X148585511Y-88644570D01*
X148536842Y-88462934D01*
X148536841Y-88462932D01*
X148535419Y-88457624D01*
X148440136Y-88253289D01*
X148310819Y-88068604D01*
X148151396Y-87909181D01*
X147966711Y-87779864D01*
X147961733Y-87777543D01*
X147961730Y-87777541D01*
X147890219Y-87744195D01*
X147836934Y-87697277D01*
X147817473Y-87629000D01*
X147838015Y-87561040D01*
X147890219Y-87515805D01*
X147961730Y-87482459D01*
X147961733Y-87482457D01*
X147966711Y-87480136D01*
X148151396Y-87350819D01*
X148310819Y-87191396D01*
X148440136Y-87006711D01*
X148535419Y-86802376D01*
X148593772Y-86584600D01*
X148613422Y-86360000D01*
X148593772Y-86135400D01*
X148535419Y-85917624D01*
X148440136Y-85713289D01*
X148310819Y-85528604D01*
X148151396Y-85369181D01*
X147966711Y-85239864D01*
X147961733Y-85237543D01*
X147961730Y-85237541D01*
X147890219Y-85204195D01*
X147836934Y-85157277D01*
X147817473Y-85089000D01*
X147838015Y-85021040D01*
X147890219Y-84975805D01*
X147961730Y-84942459D01*
X147961733Y-84942457D01*
X147966711Y-84940136D01*
X148151396Y-84810819D01*
X148310819Y-84651396D01*
X148440136Y-84466711D01*
X148535419Y-84262376D01*
X148593772Y-84044600D01*
X148613422Y-83820000D01*
X148593772Y-83595400D01*
X148535419Y-83377624D01*
X148440136Y-83173289D01*
X148310819Y-82988604D01*
X148151396Y-82829181D01*
X147966711Y-82699864D01*
X147961733Y-82697543D01*
X147961730Y-82697541D01*
X147890219Y-82664195D01*
X147836934Y-82617277D01*
X147817473Y-82549000D01*
X147838015Y-82481040D01*
X147890219Y-82435805D01*
X147961730Y-82402459D01*
X147961733Y-82402457D01*
X147966711Y-82400136D01*
X148151396Y-82270819D01*
X148310819Y-82111396D01*
X148440136Y-81926711D01*
X148535419Y-81722376D01*
X148593772Y-81504600D01*
X148613422Y-81280000D01*
X148593772Y-81055400D01*
X148535419Y-80837624D01*
X148440136Y-80633289D01*
X148310819Y-80448604D01*
X148151396Y-80289181D01*
X147966711Y-80159864D01*
X147961733Y-80157543D01*
X147961730Y-80157541D01*
X147890219Y-80124195D01*
X147836934Y-80077277D01*
X147817473Y-80009000D01*
X147838015Y-79941040D01*
X147890219Y-79895805D01*
X147961730Y-79862459D01*
X147961733Y-79862457D01*
X147966711Y-79860136D01*
X148151396Y-79730819D01*
X148310819Y-79571396D01*
X148440136Y-79386711D01*
X148535419Y-79182376D01*
X148593772Y-78964600D01*
X148613422Y-78740000D01*
X148593772Y-78515400D01*
X148535419Y-78297624D01*
X148440136Y-78093289D01*
X148310819Y-77908604D01*
X148151396Y-77749181D01*
X147966711Y-77619864D01*
X147961733Y-77617543D01*
X147961730Y-77617541D01*
X147890219Y-77584195D01*
X147836934Y-77537277D01*
X147817473Y-77469000D01*
X147838015Y-77401040D01*
X147890219Y-77355805D01*
X147961730Y-77322459D01*
X147961733Y-77322457D01*
X147966711Y-77320136D01*
X148151396Y-77190819D01*
X148310819Y-77031396D01*
X148440136Y-76846711D01*
X148535419Y-76642376D01*
X148593772Y-76424600D01*
X148613422Y-76200000D01*
X148593772Y-75975400D01*
X148535419Y-75757624D01*
X148440136Y-75553289D01*
X148310819Y-75368604D01*
X148151396Y-75209181D01*
X148103261Y-75175477D01*
X148058934Y-75120021D01*
X148051625Y-75049402D01*
X148083655Y-74986041D01*
X148144857Y-74950056D01*
X148161925Y-74947002D01*
X148172820Y-74945818D01*
X148210316Y-74941745D01*
X148346705Y-74890615D01*
X148463261Y-74803261D01*
X148550615Y-74686705D01*
X148601745Y-74550316D01*
X148608500Y-74488134D01*
X148608500Y-73665475D01*
X171427559Y-73665475D01*
X171446243Y-73879036D01*
X171448145Y-73889823D01*
X171503630Y-74096894D01*
X171507378Y-74107190D01*
X171597972Y-74301473D01*
X171603455Y-74310968D01*
X171636870Y-74358689D01*
X171647347Y-74367064D01*
X171660794Y-74359996D01*
X172347978Y-73672812D01*
X172354356Y-73661132D01*
X173084408Y-73661132D01*
X173084539Y-73662965D01*
X173088790Y-73669580D01*
X173779927Y-74360717D01*
X173791702Y-74367147D01*
X173803717Y-74357851D01*
X173836545Y-74310968D01*
X173842028Y-74301473D01*
X173932622Y-74107190D01*
X173936370Y-74096894D01*
X173991855Y-73889823D01*
X173993757Y-73879036D01*
X174012441Y-73665475D01*
X174012441Y-73654525D01*
X173993757Y-73440964D01*
X173991855Y-73430177D01*
X173936370Y-73223106D01*
X173932622Y-73212810D01*
X173842028Y-73018527D01*
X173836545Y-73009032D01*
X173803130Y-72961311D01*
X173792653Y-72952936D01*
X173779206Y-72960004D01*
X173092022Y-73647188D01*
X173084408Y-73661132D01*
X172354356Y-73661132D01*
X172355592Y-73658868D01*
X172355461Y-73657035D01*
X172351210Y-73650420D01*
X171660073Y-72959283D01*
X171648298Y-72952853D01*
X171636283Y-72962149D01*
X171603455Y-73009032D01*
X171597972Y-73018527D01*
X171507378Y-73212810D01*
X171503630Y-73223106D01*
X171448145Y-73430177D01*
X171446243Y-73440964D01*
X171427559Y-73654525D01*
X171427559Y-73665475D01*
X148608500Y-73665475D01*
X148608500Y-72831866D01*
X148601745Y-72769684D01*
X148550615Y-72633295D01*
X148463261Y-72516739D01*
X148428018Y-72490326D01*
X148385503Y-72433467D01*
X148380477Y-72362649D01*
X148414537Y-72300355D01*
X148476868Y-72266365D01*
X148503583Y-72263500D01*
X172098786Y-72263500D01*
X172166907Y-72283502D01*
G37*
%TD.AperFunction*%
%TD*%
M02*
